<svg xmlns="http://www.w3.org/2000/svg" xmlns:xlink="http://www.w3.org/1999/xlink" width="500" zoomAndPan="magnify" viewBox="0 0 375 374.999991" height="500" preserveAspectRatio="xMidYMid meet" version="1.2"><defs><clipPath id="fbf6c8d4c4"><path d="M 189 106.429688 L 242.503906 106.429688 L 242.503906 150 L 189 150 Z M 189 106.429688 "/></clipPath><clipPath id="bcd7c0bb72"><path d="M 132.253906 153 L 142 153 L 142 174 L 132.253906 174 Z M 132.253906 153 "/></clipPath><clipPath id="e2903ee926"><path d="M 171.457031 193.152344 L 200.851562 193.152344 L 200.851562 201.664062 L 171.457031 201.664062 Z M 171.457031 193.152344 "/></clipPath></defs><g id="5ee128b5a0"><path style=" stroke:none;fill-rule:nonzero;fill:#043c8a;fill-opacity:1;" d="M 186.1875 126.910156 C 181.378906 126.910156 177.242188 129.730469 175.265625 133.796875 L 197.070312 133.796875 C 195.09375 129.730469 190.957031 126.910156 186.1875 126.910156 "/><path style=" stroke:none;fill-rule:nonzero;fill:#043c8a;fill-opacity:1;" d="M 231.320312 142.265625 L 231.320312 152.203125 L 234.039062 152.203125 L 234.039062 142.265625 C 233.59375 142.417969 233.144531 142.492188 232.660156 142.492188 C 232.175781 142.492188 231.730469 142.417969 231.320312 142.265625 "/><path style=" stroke:none;fill-rule:nonzero;fill:#043c8a;fill-opacity:1;" d="M 203.105469 158.679688 C 205.828125 158.679688 207.988281 160.859375 207.988281 163.570312 C 207.988281 166.320312 205.828125 168.503906 203.105469 168.503906 C 200.421875 168.503906 198.261719 166.320312 198.261719 163.570312 C 198.261719 160.859375 200.421875 158.679688 203.105469 158.679688 Z M 193.679688 163.570312 C 193.679688 168.878906 197.886719 173.132812 203.105469 173.132812 C 208.359375 173.132812 212.574219 168.878906 212.574219 163.570312 C 212.574219 158.300781 208.359375 154.046875 203.105469 154.046875 C 197.886719 154.046875 193.679688 158.300781 193.679688 163.570312 "/><g clip-rule="nonzero" clip-path="url(#fbf6c8d4c4)"><path style=" stroke:none;fill-rule:nonzero;fill:#043c8a;fill-opacity:1;" d="M 201.316406 130.523438 L 209.332031 130.523438 C 208.621094 137.445312 205.828125 143.621094 202.546875 149.605469 C 207.726562 146.332031 214.734375 141.476562 219.542969 130.523438 L 230.574219 130.523438 C 237.132812 130.523438 242.5 125.101562 242.5 118.476562 C 242.5 111.851562 237.132812 106.429688 230.574219 106.429688 L 201.316406 106.429688 C 194.757812 106.429688 189.390625 111.851562 189.390625 118.476562 C 189.390625 125.101562 194.757812 130.523438 201.316406 130.523438 "/></g><path style=" stroke:none;fill-rule:nonzero;fill:#043c8a;fill-opacity:1;" d="M 237.019531 136.957031 C 237.019531 134.550781 235.046875 132.589844 232.660156 132.589844 C 230.277344 132.589844 228.335938 134.550781 228.335938 136.957031 C 228.335938 139.40625 230.277344 141.363281 232.660156 141.363281 C 235.046875 141.363281 237.019531 139.40625 237.019531 136.957031 "/><g clip-rule="nonzero" clip-path="url(#bcd7c0bb72)"><path style=" stroke:none;fill-rule:nonzero;fill:#043c8a;fill-opacity:1;" d="M 141.316406 153.332031 L 136.546875 153.332031 C 134.160156 153.332031 132.257812 155.289062 132.257812 157.660156 L 132.257812 169.519531 C 132.257812 171.890625 134.160156 173.847656 136.546875 173.847656 L 141.316406 173.847656 C 140.085938 170.648438 139.414062 167.183594 139.414062 163.570312 C 139.414062 159.996094 140.085938 156.53125 141.316406 153.332031 "/></g><path style=" stroke:none;fill-rule:nonzero;fill:#043c8a;fill-opacity:1;" d="M 139.675781 141.363281 C 142.0625 141.363281 144 139.40625 144 136.957031 C 144 134.550781 142.0625 132.589844 139.675781 132.589844 C 137.289062 132.589844 135.351562 134.550781 135.351562 136.957031 C 135.351562 139.40625 137.289062 141.363281 139.675781 141.363281 "/><path style=" stroke:none;fill-rule:nonzero;fill:#043c8a;fill-opacity:1;" d="M 235.121094 153.332031 L 231.019531 153.332031 C 232.25 156.53125 232.921875 159.996094 232.921875 163.570312 C 232.921875 167.183594 232.25 170.648438 231.019531 173.847656 L 235.121094 173.847656 C 237.46875 173.847656 239.40625 171.890625 239.40625 169.519531 L 239.40625 157.660156 C 239.40625 155.289062 237.46875 153.332031 235.121094 153.332031 "/><g clip-rule="nonzero" clip-path="url(#e2903ee926)"><path style=" stroke:none;fill-rule:nonzero;fill:#043c8a;fill-opacity:1;" d="M 171.539062 201.664062 L 200.796875 201.664062 L 200.796875 193.382812 L 171.539062 193.382812 L 171.539062 201.664062 "/></g><path style=" stroke:none;fill-rule:nonzero;fill:#043c8a;fill-opacity:1;" d="M 216.597656 138.238281 C 214.773438 140.910156 212.683594 143.207031 210.261719 145.351562 C 217.53125 148.136719 222.746094 155.289062 222.746094 163.570312 C 222.746094 174.335938 214.0625 183.105469 203.402344 183.105469 L 168.929688 183.105469 C 158.273438 183.105469 149.589844 174.335938 149.589844 163.570312 C 149.589844 152.84375 158.273438 144.070312 168.929688 144.070312 L 203.402344 144.070312 C 203.664062 144.070312 203.890625 144.070312 204.113281 144.070312 C 205.453125 141.210938 206.609375 138.277344 207.355469 135.191406 C 206.085938 135 204.746094 134.925781 203.402344 134.925781 L 168.929688 134.925781 C 153.316406 134.925781 140.53125 147.800781 140.53125 163.570312 C 140.53125 179.34375 153.316406 192.253906 168.929688 192.253906 L 203.402344 192.253906 C 219.019531 192.253906 231.804688 179.34375 231.804688 163.570312 C 231.804688 152.617188 225.617188 143.058594 216.597656 138.238281 "/><path style=" stroke:none;fill-rule:nonzero;fill:#043c8a;fill-opacity:1;" d="M 138.332031 142.265625 L 138.332031 152.203125 L 141.015625 152.203125 L 141.015625 142.265625 C 140.605469 142.417969 140.160156 142.492188 139.675781 142.492188 C 139.191406 142.492188 138.742188 142.417969 138.332031 142.265625 "/><path style=" stroke:none;fill-rule:nonzero;fill:#043c8a;fill-opacity:1;" d="M 174.074219 163.570312 C 174.074219 166.320312 171.914062 168.503906 169.230469 168.503906 C 166.507812 168.503906 164.347656 166.320312 164.347656 163.570312 C 164.347656 160.859375 166.507812 158.679688 169.230469 158.679688 C 171.914062 158.679688 174.074219 160.859375 174.074219 163.570312 Z M 159.761719 163.570312 C 159.761719 168.878906 163.972656 173.132812 169.230469 173.132812 C 174.445312 173.132812 178.695312 168.878906 178.695312 163.570312 C 178.695312 158.300781 174.445312 154.046875 169.230469 154.046875 C 163.972656 154.046875 159.761719 158.300781 159.761719 163.570312 "/><g style="fill:#032d68;fill-opacity:1;"><g transform="translate(56.566407, 256.968499)"><path style="stroke:none" d="M 28.84375 0 L 26.875 -7.5 L 13.890625 -7.5 L 11.875 0 L 0 0 L 13.046875 -40.140625 L 27.453125 -40.140625 L 40.65625 0 Z M 24.640625 -16.359375 L 22.921875 -22.921875 C 22.734375 -23.628906 22.46875 -24.644531 22.125 -25.96875 C 21.78125 -27.289062 21.4375 -28.65625 21.09375 -30.0625 C 20.757812 -31.476562 20.5 -32.640625 20.3125 -33.546875 C 20.15625 -32.640625 19.925781 -31.515625 19.625 -30.171875 C 19.320312 -28.835938 19.007812 -27.515625 18.6875 -26.203125 C 18.375 -24.890625 18.097656 -23.796875 17.859375 -22.921875 L 16.140625 -16.359375 Z M 24.640625 -16.359375 "/></g></g><g style="fill:#032d68;fill-opacity:1;"><g transform="translate(97.220888, 256.968499)"><path style="stroke:none" d="M 28.0625 0 L 4.328125 0 L 4.328125 -39.984375 L 28.0625 -39.984375 L 28.0625 -31.3125 L 15.125 -31.3125 L 15.125 -25.015625 L 27.09375 -25.015625 L 27.09375 -16.359375 L 15.125 -16.359375 L 15.125 -8.8125 L 28.0625 -8.8125 Z M 28.0625 0 "/></g></g><g style="fill:#032d68;fill-opacity:1;"><g transform="translate(127.950973, 256.968499)"><path style="stroke:none" d="M 17.421875 -39.984375 C 21.046875 -39.984375 24.0625 -39.539062 26.46875 -38.65625 C 28.875 -37.769531 30.679688 -36.453125 31.890625 -34.703125 C 33.109375 -32.953125 33.71875 -30.773438 33.71875 -28.171875 C 33.71875 -26.546875 33.441406 -25.066406 32.890625 -23.734375 C 32.347656 -22.398438 31.570312 -21.207031 30.5625 -20.15625 C 29.550781 -19.113281 28.34375 -18.203125 26.9375 -17.421875 L 38.578125 0 L 26.328125 0 L 17.859375 -14.546875 L 15.125 -14.546875 L 15.125 0 L 4.328125 0 L 4.328125 -39.984375 Z M 17.25 -31.796875 L 15.125 -31.796875 L 15.125 -22.671875 L 17.140625 -22.671875 C 18.804688 -22.671875 20.164062 -23.035156 21.21875 -23.765625 C 22.28125 -24.492188 22.8125 -25.796875 22.8125 -27.671875 C 22.8125 -28.960938 22.375 -29.972656 21.5 -30.703125 C 20.625 -31.429688 19.207031 -31.796875 17.25 -31.796875 Z M 17.25 -31.796875 "/></g></g><g style="fill:#032d68;fill-opacity:1;"><g transform="translate(165.844121, 256.968499)"><path style="stroke:none" d="M 41.734375 -20.046875 C 41.734375 -16.960938 41.363281 -14.15625 40.625 -11.625 C 39.882812 -9.101562 38.726562 -6.929688 37.15625 -5.109375 C 35.59375 -3.285156 33.578125 -1.882812 31.109375 -0.90625 C 28.648438 0.0625 25.707031 0.546875 22.28125 0.546875 C 18.925781 0.546875 16.023438 0.0625 13.578125 -0.90625 C 11.128906 -1.882812 9.109375 -3.28125 7.515625 -5.09375 C 5.929688 -6.914062 4.753906 -9.09375 3.984375 -11.625 C 3.222656 -14.15625 2.84375 -16.976562 2.84375 -20.09375 C 2.84375 -24.25 3.53125 -27.863281 4.90625 -30.9375 C 6.28125 -34.007812 8.40625 -36.390625 11.28125 -38.078125 C 14.164062 -39.765625 17.851562 -40.609375 22.34375 -40.609375 C 26.894531 -40.609375 30.597656 -39.757812 33.453125 -38.0625 C 36.304688 -36.363281 38.398438 -33.972656 39.734375 -30.890625 C 41.066406 -27.816406 41.734375 -24.203125 41.734375 -20.046875 Z M 14.21875 -20.046875 C 14.21875 -17.640625 14.488281 -15.566406 15.03125 -13.828125 C 15.582031 -12.097656 16.453125 -10.769531 17.640625 -9.84375 C 18.828125 -8.914062 20.375 -8.453125 22.28125 -8.453125 C 24.269531 -8.453125 25.851562 -8.914062 27.03125 -9.84375 C 28.207031 -10.769531 29.054688 -12.097656 29.578125 -13.828125 C 30.097656 -15.566406 30.359375 -17.640625 30.359375 -20.046875 C 30.359375 -23.648438 29.753906 -26.5 28.546875 -28.59375 C 27.347656 -30.695312 25.28125 -31.75 22.34375 -31.75 C 20.394531 -31.75 18.820312 -31.273438 17.625 -30.328125 C 16.425781 -29.378906 15.554688 -28.03125 15.015625 -26.28125 C 14.484375 -24.53125 14.21875 -22.453125 14.21875 -20.046875 Z M 14.21875 -20.046875 "/></g></g><g style="fill:#032d68;fill-opacity:1;"><g transform="translate(210.462892, 256.968499)"><path style="stroke:none" d="M 30.46875 -12.140625 C 30.46875 -9.972656 29.921875 -7.914062 28.828125 -5.96875 C 27.734375 -4.03125 26.03125 -2.457031 23.71875 -1.25 C 21.414062 -0.0507812 18.441406 0.546875 14.796875 0.546875 C 12.972656 0.546875 11.375 0.460938 10 0.296875 C 8.625 0.140625 7.34375 -0.125 6.15625 -0.5 C 4.96875 -0.875 3.738281 -1.363281 2.46875 -1.96875 L 2.46875 -11.59375 C 4.632812 -10.5 6.816406 -9.664062 9.015625 -9.09375 C 11.222656 -8.519531 13.222656 -8.234375 15.015625 -8.234375 C 16.085938 -8.234375 16.960938 -8.359375 17.640625 -8.609375 C 18.328125 -8.867188 18.832031 -9.222656 19.15625 -9.671875 C 19.488281 -10.117188 19.65625 -10.632812 19.65625 -11.21875 C 19.65625 -11.90625 19.414062 -12.488281 18.9375 -12.96875 C 18.457031 -13.457031 17.6875 -13.960938 16.625 -14.484375 C 15.570312 -15.015625 14.175781 -15.675781 12.4375 -16.46875 C 10.96875 -17.15625 9.632812 -17.863281 8.4375 -18.59375 C 7.238281 -19.320312 6.21875 -20.15625 5.375 -21.09375 C 4.53125 -22.03125 3.878906 -23.128906 3.421875 -24.390625 C 2.960938 -25.648438 2.734375 -27.132812 2.734375 -28.84375 C 2.734375 -31.414062 3.363281 -33.570312 4.625 -35.3125 C 5.894531 -37.050781 7.664062 -38.359375 9.9375 -39.234375 C 12.207031 -40.109375 14.828125 -40.546875 17.796875 -40.546875 C 20.410156 -40.546875 22.757812 -40.253906 24.84375 -39.671875 C 26.925781 -39.085938 28.800781 -38.425781 30.46875 -37.6875 L 27.15625 -29.34375 C 25.4375 -30.125 23.75 -30.742188 22.09375 -31.203125 C 20.4375 -31.671875 18.894531 -31.90625 17.46875 -31.90625 C 16.539062 -31.90625 15.78125 -31.789062 15.1875 -31.5625 C 14.59375 -31.34375 14.15625 -31.039062 13.875 -30.65625 C 13.59375 -30.269531 13.453125 -29.832031 13.453125 -29.34375 C 13.453125 -28.71875 13.691406 -28.160156 14.171875 -27.671875 C 14.660156 -27.179688 15.472656 -26.648438 16.609375 -26.078125 C 17.753906 -25.503906 19.3125 -24.757812 21.28125 -23.84375 C 23.226562 -22.96875 24.882812 -22.023438 26.25 -21.015625 C 27.613281 -20.003906 28.65625 -18.789062 29.375 -17.375 C 30.101562 -15.96875 30.46875 -14.222656 30.46875 -12.140625 Z M 30.46875 -12.140625 "/></g></g><g style="fill:#032d68;fill-opacity:1;"><g transform="translate(242.778694, 256.968499)"><path style="stroke:none" d="M 38.46875 0 L 26.28125 0 L 18.375 -15.28125 L 15.171875 -13.375 L 15.171875 0 L 4.328125 0 L 4.328125 -39.984375 L 15.171875 -39.984375 L 15.171875 -22.609375 C 15.628906 -23.484375 16.15625 -24.359375 16.75 -25.234375 C 17.34375 -26.109375 17.921875 -26.941406 18.484375 -27.734375 L 26.875 -39.984375 L 38.6875 -39.984375 L 26.09375 -22.0625 Z M 38.46875 0 "/></g></g><g style="fill:#032d68;fill-opacity:1;"><g transform="translate(281.24598, 256.968499)"><path style="stroke:none" d="M 18.59375 -25.15625 L 25.484375 -39.984375 L 37.1875 -39.984375 L 24.03125 -15.609375 L 24.03125 0 L 13.15625 0 L 13.15625 -15.28125 L 0 -39.984375 L 11.765625 -39.984375 Z M 18.59375 -25.15625 "/></g></g><g style="fill:#ffffff;fill-opacity:1;"><g transform="translate(203.587359, 123.771906)"><path style="stroke:none" d="M 4.328125 0.125 C 3.597656 0.125 2.945312 0 2.375 -0.25 C 1.8125 -0.5 1.363281 -0.84375 1.03125 -1.28125 C 0.707031 -1.71875 0.523438 -2.207031 0.484375 -2.75 L 3.015625 -2.75 C 3.046875 -2.457031 3.179688 -2.21875 3.421875 -2.03125 C 3.660156 -1.851562 3.957031 -1.765625 4.3125 -1.765625 C 4.625 -1.765625 4.867188 -1.828125 5.046875 -1.953125 C 5.222656 -2.078125 5.3125 -2.238281 5.3125 -2.4375 C 5.3125 -2.6875 5.1875 -2.867188 4.9375 -2.984375 C 4.6875 -3.097656 4.28125 -3.222656 3.71875 -3.359375 C 3.113281 -3.492188 2.613281 -3.640625 2.21875 -3.796875 C 1.820312 -3.953125 1.476562 -4.195312 1.1875 -4.53125 C 0.894531 -4.875 0.75 -5.328125 0.75 -5.890625 C 0.75 -6.367188 0.878906 -6.804688 1.140625 -7.203125 C 1.410156 -7.597656 1.800781 -7.910156 2.3125 -8.140625 C 2.832031 -8.367188 3.445312 -8.484375 4.15625 -8.484375 C 5.207031 -8.484375 6.035156 -8.222656 6.640625 -7.703125 C 7.242188 -7.191406 7.59375 -6.503906 7.6875 -5.640625 L 5.3125 -5.640625 C 5.269531 -5.929688 5.140625 -6.160156 4.921875 -6.328125 C 4.710938 -6.492188 4.429688 -6.578125 4.078125 -6.578125 C 3.773438 -6.578125 3.546875 -6.519531 3.390625 -6.40625 C 3.234375 -6.289062 3.15625 -6.132812 3.15625 -5.9375 C 3.15625 -5.695312 3.28125 -5.515625 3.53125 -5.390625 C 3.789062 -5.273438 4.1875 -5.160156 4.71875 -5.046875 C 5.34375 -4.878906 5.847656 -4.71875 6.234375 -4.5625 C 6.628906 -4.40625 6.972656 -4.15625 7.265625 -3.8125 C 7.554688 -3.46875 7.707031 -3.007812 7.71875 -2.4375 C 7.71875 -1.9375 7.582031 -1.492188 7.3125 -1.109375 C 7.039062 -0.734375 6.644531 -0.429688 6.125 -0.203125 C 5.613281 0.015625 5.015625 0.125 4.328125 0.125 Z M 4.328125 0.125 "/></g></g><g style="fill:#ffffff;fill-opacity:1;"><g transform="translate(211.95735, 123.771906)"><path style="stroke:none" d="M 6.046875 0 L 3.5 -3.515625 L 3.5 0 L 0.9375 0 L 0.9375 -11.09375 L 3.5 -11.09375 L 3.5 -4.96875 L 6.03125 -8.375 L 9.1875 -8.375 L 5.71875 -4.171875 L 9.21875 0 Z M 6.046875 0 "/></g></g><g style="fill:#ffffff;fill-opacity:1;"><g transform="translate(221.227338, 123.771906)"><path style="stroke:none" d="M 9.484375 -8.375 L 4.234375 3.96875 L 1.46875 3.96875 L 3.390625 -0.28125 L -0.015625 -8.375 L 2.84375 -8.375 L 4.78125 -3.140625 L 6.703125 -8.375 Z M 9.484375 -8.375 "/></g></g></g></svg>